<svg aria-hidden="true" style="position: absolute; width: 0; height: 0; overflow: hidden;" version="1.1" xmlns="http://www.w3.org/2000/svg" xmlns:xlink="http://www.w3.org/1999/xlink">
<defs>
<symbol id="phone-1" viewBox="0 0 32 32">
<title>phone</title>
<path d="M31.16 24.686l-6.477-4.319c-0.822-0.544-1.924-0.365-2.531 0.411l-1.887 2.426c-0.149 0.195-0.381 0.319-0.642 0.319-0.144 0-0.279-0.038-0.396-0.104l0.004 0.002-0.359-0.198c-1.19-0.648-2.67-1.456-5.652-4.439s-3.791-4.465-4.44-5.652l-0.197-0.359c-0.065-0.114-0.104-0.251-0.104-0.396 0-0.261 0.124-0.492 0.315-0.64l0.002-0.001 2.424-1.886c0.776-0.608 0.955-1.709 0.412-2.531l-4.319-6.477c-0.557-0.837-1.673-1.089-2.535-0.571l-2.708 1.627c-0.841 0.501-1.464 1.293-1.735 2.234l-0.007 0.027c-0.975 3.554-0.242 9.687 8.793 18.722 7.187 7.186 12.537 9.119 16.214 9.119 0.012 0 0.026 0 0.040 0 0.877 0 1.726-0.12 2.532-0.343l-0.066 0.016c0.968-0.277 1.761-0.901 2.251-1.725l0.010-0.018 1.629-2.707c0.519-0.862 0.268-1.979-0.57-2.536zM30.812 26.675l-1.625 2.708c-0.36 0.607-0.929 1.058-1.607 1.256l-0.019 0.005c-3.281 0.901-9.012 0.155-17.685-8.519s-9.419-14.404-8.519-17.685c0.203-0.698 0.654-1.269 1.249-1.622l0.013-0.007 2.708-1.625c0.374-0.225 0.859-0.116 1.1 0.247l4.316 6.476c0.236 0.357 0.158 0.835-0.178 1.099l-2.425 1.886c-0.738 0.564-0.949 1.585-0.494 2.395l0.193 0.35c0.682 1.25 1.529 2.805 4.622 5.898s4.648 3.94 5.897 4.622l0.35 0.193c0.81 0.454 1.831 0.244 2.395-0.494l1.886-2.425c0.264-0.336 0.742-0.414 1.099-0.178l6.476 4.319c0.364 0.241 0.473 0.726 0.247 1.1zM18.132 5.336c5.004 0.006 9.060 4.061 9.065 9.065 0 0.295 0.239 0.533 0.533 0.533s0.533-0.239 0.533-0.533c-0.006-5.593-4.539-10.126-10.132-10.132-0.295 0-0.533 0.239-0.533 0.533s0.239 0.533 0.533 0.533z"></path>
<path d="M18.132 8.536c3.238 0.004 5.862 2.628 5.866 5.866 0 0.294 0.239 0.533 0.533 0.533s0.533-0.239 0.533-0.533v0c-0.004-3.827-3.106-6.928-6.932-6.932-0.295 0-0.533 0.239-0.533 0.533s0.239 0.533 0.533 0.533z"></path>
<path d="M18.132 11.735c1.472 0.002 2.664 1.194 2.666 2.666 0 0.294 0.239 0.533 0.533 0.533s0.533-0.239 0.533-0.533v0c-0.002-2.061-1.672-3.73-3.733-3.733-0.295 0-0.533 0.239-0.533 0.533s0.239 0.533 0.533 0.533z"></path>
</symbol>
<symbol id="e-mail" viewBox="0 0 32 32">
<title>e-mail</title>
<path d="M30.4 3.733h-28.8c-0.884 0-1.6 0.716-1.6 1.6v21.333c0 0.884 0.716 1.6 1.6 1.6h28.8c0.884 0 1.6-0.716 1.6-1.6v-21.333c0-0.884-0.716-1.6-1.6-1.6zM30.933 26.667c0 0.295-0.239 0.533-0.533 0.533v0h-28.8c-0.295 0-0.533-0.239-0.533-0.533v0-21.333c0-0.295 0.239-0.533 0.533-0.533v0h28.8c0.295 0 0.533 0.239 0.533 0.533v21.333z"></path>
<path d="M29.38 5.869c-0.014-0.001-0.030-0.002-0.046-0.002-0.131 0-0.251 0.047-0.344 0.126l-12.303 10.335c-0.184 0.156-0.424 0.25-0.686 0.25s-0.502-0.095-0.688-0.251l0.002 0.001-12.304-10.336c-0.091-0.075-0.209-0.12-0.337-0.12-0.295 0-0.533 0.239-0.533 0.533 0 0.161 0.071 0.306 0.184 0.403l0.001 0.001 12.304 10.335c0.793 0.668 1.952 0.668 2.745 0l12.304-10.335c0.117-0.098 0.19-0.245 0.19-0.409 0-0.131-0.047-0.251-0.126-0.344l0.001 0.001c-0.089-0.105-0.216-0.175-0.36-0.188l-0.002-0zM10.258 17.071c-0.035-0.008-0.075-0.013-0.116-0.013-0.158 0-0.3 0.069-0.398 0.178l-0 0-7.467 8c-0.092 0.096-0.149 0.226-0.149 0.369 0 0.294 0.239 0.533 0.533 0.533 0.157 0 0.297-0.067 0.395-0.175l0-0 7.467-8c0.094-0.096 0.152-0.228 0.152-0.373 0-0.253-0.177-0.465-0.414-0.52l-0.004-0.001zM22.257 17.236c-0.098-0.111-0.241-0.18-0.399-0.18-0.295 0-0.533 0.239-0.533 0.533 0 0.146 0.058 0.278 0.153 0.374l-0-0 7.467 8c0.097 0.1 0.233 0.162 0.383 0.162 0.295 0 0.533-0.239 0.533-0.533 0-0.137-0.052-0.262-0.137-0.357l-7.466-7.999z"></path>
</symbol>
<symbol id="wrench-1" viewBox="0 0 32 32">
<title>wrench-1</title>
<path d="M9.73 12.437l10.207 10.207 2.707-2.707-10.207-10.207zM19.937 21.23l-8.793-8.793 1.293-1.293 8.793 8.793z"></path>
<path d="M30.937 13.576l-2.956-0.983c-0.3-1.069-0.696-2-1.194-2.866l0.032 0.061 1.391-2.787-3.335-3.337-2.789 1.391c-0.806-0.465-1.738-0.862-2.72-1.14l-0.088-0.021-0.982-2.956h-4.721l-0.89 2.673c-1.198-1.624-3.101-2.667-5.249-2.673h-0.001c-0.004 0-0.010-0-0.015-0-0.595 0-1.171 0.081-1.717 0.233l0.045-0.011-0.831 0.228 2.805 2.805-0.745 2.788-2.788 0.745-2.804-2.805-0.227 0.831c-0.142 0.502-0.223 1.079-0.223 1.674 0 0.005 0 0.009 0 0.014v-0.001c0.006 2.149 1.049 4.052 2.655 5.237l0.018 0.013-2.673 0.889v4.721l2.956 0.983c0.3 1.069 0.697 2 1.194 2.867l-0.032-0.061-1.391 2.789 3.335 3.335 2.789-1.391c0.806 0.465 1.738 0.862 2.72 1.14l0.088 0.021 0.982 2.956h4.721l0.89-2.673c1.198 1.623 3.102 2.666 5.249 2.672h0.001c0.004 0 0.009 0 0.014 0 0.595 0 1.171-0.081 1.718-0.233l-0.045 0.011 0.831-0.227-2.804-2.805 0.745-2.788 2.788-0.745 2.804 2.804 0.227-0.831c0.141-0.502 0.223-1.079 0.223-1.675 0-0.004 0-0.008 0-0.013v0.001c-0.006-2.075-0.998-4.024-2.673-5.25l2.673-0.89zM22.746 17.537l-8.409-8.409c2.359-0.562 4.84 0.139 6.555 1.854s2.416 4.196 1.854 6.555zM17.576 29.937h-3.279l-0.928-2.788-0.266-0.067c-1.155-0.297-2.17-0.729-3.098-1.289l0.051 0.029-0.235-0.139-2.626 1.31-2.316-2.316 1.31-2.626-0.139-0.234c-0.531-0.877-0.963-1.891-1.242-2.967l-0.018-0.080-0.067-0.266-2.788-0.928v-3.279l2.792-0.929 0.005-0.021c0.784 0.373 1.703 0.59 2.673 0.59 0.28 0 0.557-0.018 0.828-0.053l-0.032 0.003c-0.729 2.755 0.063 5.691 2.078 7.706s4.951 2.807 7.706 2.078c-0.032 0.239-0.050 0.516-0.050 0.796 0 0.97 0.217 1.889 0.606 2.711l-0.016-0.039-0.021 0.005zM9.126 14.337l8.411 8.409c-2.359 0.562-4.84-0.139-6.555-1.854s-2.416-4.196-1.854-6.555zM29.937 24.437c0 0.177-0.009 0.354-0.025 0.528l-1.931-1.932-3.9 1.045-1.045 3.902 1.932 1.931c-0.175 0.016-0.35 0.025-0.529 0.025-1.953-0.005-3.759-1.040-4.75-2.724-0.473-0.792-0.752-1.747-0.752-2.767 0-0.003 0-0.006 0-0.009v0c-0-0.008-0-0.017-0-0.026 0-0.426 0.051-0.84 0.148-1.236l-0.007 0.036 0.066-0.273-10.207-10.207-0.273 0.067c-0.361 0.089-0.776 0.141-1.202 0.141-0.009 0-0.017-0-0.026-0h0.001c-0.005 0-0.010 0-0.015 0-1.018 0-1.971-0.279-2.787-0.764l0.025 0.014c-1.684-0.99-2.719-2.797-2.723-4.75 0-0.178 0.009-0.354 0.025-0.529l1.931 1.932 3.902-1.045 1.045-3.902-1.932-1.931c0.175-0.016 0.35-0.025 0.529-0.025 1.954 0.005 3.76 1.040 4.75 2.724 0.471 0.791 0.75 1.744 0.75 2.762 0 0.005 0 0.010-0 0.014v-0.001c0 0.007 0 0.016 0 0.025 0 0.426-0.051 0.841-0.148 1.238l0.007-0.036-0.067 0.273 10.207 10.207 0.273-0.066c0.361-0.089 0.775-0.141 1.201-0.141 0.009 0 0.018 0 0.027 0h-0.001c0.005 0 0.010-0 0.015-0 1.018 0 1.971 0.279 2.787 0.764l-0.025-0.014c1.684 0.99 2.719 2.797 2.723 4.75zM29.937 17.576l-2.792 0.929-0.005 0.021c-0.784-0.373-1.703-0.59-2.673-0.59-0.281 0-0.557 0.018-0.828 0.053l0.032-0.003c0.729-2.755-0.063-5.691-2.078-7.706s-4.951-2.807-7.706-2.078c0.032-0.239 0.050-0.516 0.050-0.796 0-0.97-0.217-1.889-0.606-2.711l0.016 0.039 0.021-0.005 0.929-2.792h3.279l0.928 2.788 0.266 0.067c1.155 0.297 2.17 0.729 3.098 1.289l-0.051-0.029 0.234 0.139 2.626-1.31 2.316 2.316-1.31 2.626 0.139 0.235c0.531 0.877 0.963 1.891 1.242 2.967l0.018 0.080 0.067 0.266 2.788 0.928z"></path>
</symbol>
<symbol id="savings-1" viewBox="0 0 32 32">
<title>savings-1</title>
<path d="M4.389 24h23.221c0.919 0 1.666-0.747 1.666-1.666v-15.391c0-0.919-0.747-1.666-1.666-1.666h-23.221c-0.919 0-1.666 0.747-1.666 1.666v15.391c0 0.919 0.747 1.666 1.666 1.666zM4.085 9.298h1.362v1.362h-1.362v-1.362zM4.085 18.617h1.362v1.362h-1.362v-1.362zM4.085 21.34h2.043c0.376 0 0.681-0.305 0.681-0.681v-2.723c0-0.376-0.305-0.681-0.681-0.681h-2.043v-5.234h2.043c0.376 0 0.681-0.305 0.681-0.681v-2.723c0-0.376-0.305-0.681-0.681-0.681h-2.043v-0.994c0-0.168 0.136-0.304 0.304-0.304h23.221c0.168 0 0.304 0.136 0.304 0.304v0 15.391c-0 0.168-0.136 0.304-0.304 0.304h-23.221c-0.168-0-0.304-0.136-0.304-0.304v-0.994z"></path>
<path d="M31.319 2.553h-30.638c-0.376 0-0.681 0.305-0.681 0.681v22.808c0 0.376 0.305 0.681 0.681 0.681h1.717v0.991c0 0.955 0.777 1.732 1.732 1.732h1.983c0.955 0 1.732-0.777 1.732-1.732v-0.991h16.311v0.991c0 0.955 0.777 1.732 1.732 1.732h1.983c0.955 0 1.732-0.777 1.732-1.732v-0.991h1.717c0.376 0 0.681-0.305 0.681-0.681v-22.808c0-0.376-0.305-0.681-0.681-0.681zM6.113 28.085h-1.983c-0.204-0-0.37-0.166-0.37-0.37v-0.992h2.723v0.991h0c-0 0.204-0.166 0.37-0.37 0.37h-0zM27.87 28.085h-1.983c-0.204-0-0.37-0.166-0.37-0.37v-0.992h2.723v0.991h0c-0 0.204-0.166 0.37-0.37 0.37h-0zM30.638 25.362h-29.277v-21.447h29.277v21.447z"></path>
<path d="M17.021 21.277h8.851c0.376 0 0.681-0.305 0.681-0.681v-11.915c0-0.376-0.305-0.681-0.681-0.681h-8.851c-0.376 0-0.681 0.305-0.681 0.681v11.915c0 0.376 0.305 0.681 0.681 0.681zM17.702 9.362h1.589v3.496c0 0.376 0.305 0.681 0.681 0.681s0.681-0.305 0.681-0.681v-3.496h1.589v7.574h-4.539v-7.575zM17.702 18.298h5.22c0.376 0 0.681-0.305 0.681-0.681v-8.255h1.589v10.553h-7.489v-1.617zM10.988 18.723c2.252 0 4.085-1.833 4.085-4.085s-1.833-4.085-4.085-4.085c-2.252 0-4.085 1.833-4.085 4.085s1.833 4.085 4.085 4.085zM10.988 11.915c0.496 0 0.962 0.134 1.363 0.367l-1.379 1.379c-0.266 0.266-0.266 0.697 0 0.963 0.133 0.133 0.307 0.199 0.481 0.199s0.348-0.066 0.481-0.199l1.387-1.387c0.245 0.399 0.389 0.882 0.389 1.399 0 0.001 0 0.002 0 0.003v-0c0 1.502-1.222 2.723-2.723 2.723s-2.723-1.222-2.723-2.723 1.222-2.723 2.723-2.723z"></path>
<path d="M19.972 14.605c-0.376 0-0.681 0.305-0.681 0.681v0.068c0 0.376 0.305 0.681 0.681 0.681s0.681-0.305 0.681-0.681v-0.068c-0-0.376-0.305-0.681-0.681-0.681z"></path>
</symbol>
<symbol id="world-1" viewBox="0 0 32 32">
<title>world-1</title>
<path d="M31.947 14.816c0.018-0.050 0.029-0.103 0.032-0.156 0-0.056-0.009-0.112-0.027-0.166l-0.041-0.117c-0.463-4.359-2.619-8.14-5.786-10.729l-0.029-0.023c-0.235-0.191-0.481-0.364-0.726-0.542-0.012-0.010-0.019-0.025-0.032-0.034s-0.024-0.009-0.035-0.016c-2.587-1.873-5.822-2.998-9.319-3.005h-0.002c-0.138 0-0.276 0-0.379 0.011-1.884 0.038-3.672 0.403-5.325 1.040l0.107-0.036c-1.447-1.129-3.412-1.334-5.061-0.527s-2.694 2.483-2.691 4.318c0.035 0.647 0.186 1.251 0.432 1.802l-0.013-0.032c-0.506 0.683-0.982 1.457-1.392 2.27l-0.042 0.092c-0.008 0.013-0.013 0.027-0.020 0.040-3.786 7.828-0.636 17.246 7.098 21.221s17.225 1.055 21.388-6.579c1.091-1.971 1.779-4.303 1.893-6.784l0.001-0.035c0.017-0.258 0.022-0.52 0.022-0.783 0-0.414-0.021-0.824-0.053-1.232zM30.395 12.076c-0.068-0.060-0.13-0.13-0.201-0.185-0.663-0.507-1.439-0.906-2.282-1.152l-0.050-0.012c-0.367-0.096-0.788-0.151-1.222-0.151-0.397 0-0.783 0.046-1.154 0.133l0.034-0.007c-0.306 0.072-0.658 0.114-1.020 0.114-0.345 0-0.682-0.038-1.006-0.11l0.031 0.006c-1.276-0.279-2.285-0.499-2.82-1.353-0.766-1.228-0.407-2.955 0.402-3.562 0.193-0.135 0.433-0.215 0.692-0.215 0.078 0 0.155 0.007 0.229 0.022l-0.008-0.001c0.083 0.007 0.18 0.011 0.278 0.011 0.498 0 0.972-0.107 1.399-0.299l-0.022 0.009c0.569-0.27 1.049-0.641 1.437-1.092l0.005-0.006c0.101 0.078 0.208 0.148 0.306 0.229 2.36 1.932 4.104 4.535 4.945 7.517l0.025 0.105zM7.438 1.098c2.063 0.003 3.735 1.675 3.738 3.738 0 1.597-2.399 5.254-3.738 7.108-1.186-1.586-2.283-3.38-3.206-5.275l-0.087-0.199c-0.239-0.476-0.398-1.031-0.443-1.619l-0.001-0.015c0.002-2.063 1.674-3.735 3.738-3.738zM1.030 16.049c0.002-1.050 0.111-2.073 0.317-3.061l-0.017 0.098c0.057 0.742 0.154 1.403 0.24 1.975 0.331 2.189 0.644 4.253 2.257 6.141 0.675 0.795 1.805 2.125 3.552 2.321s3.935-0.808 4.567-1.121l0.242-0.122c0.317-0.203 0.699-0.332 1.109-0.357l0.006-0c0.7 0.065 1.313 0.396 1.745 0.889l0.003 0.003c0.911 1.009 1.142 2.693 0.495 3.604-0.205 0.266-0.485 0.465-0.809 0.567l-0.012 0.003c-0.568 0.194-1.032 0.57-1.333 1.057l-0.006 0.011c-0.259 0.46-0.411 1.009-0.411 1.594 0 0.385 0.066 0.755 0.187 1.099l-0.007-0.023c-7.032-1.362-12.115-7.515-12.126-14.678zM15.981 31c-0.516 0-1.031-0.027-1.545-0.080-0.040-0.051-0.080-0.108-0.117-0.167l-0.005-0.008c-0.172-0.312-0.273-0.685-0.273-1.081 0-0.388 0.097-0.754 0.269-1.074l-0.006 0.012c0.192-0.302 0.484-0.526 0.828-0.628l0.010-0.003c0.522-0.183 0.956-0.508 1.268-0.928l0.005-0.007c0.929-1.306 0.666-3.569-0.571-4.937-0.626-0.713-1.517-1.18-2.518-1.245l-0.011-0.001h-0.024c-0.591 0.018-1.137 0.192-1.604 0.482l0.014-0.008-0.228 0.115c-1.167 0.575-2.827 1.144-3.976 1.014-1.326-0.148-2.247-1.233-2.858-1.952-1.416-1.655-1.693-3.487-2.014-5.607-0.171-0.859-0.268-1.847-0.268-2.858 0-0.931 0.083-1.842 0.241-2.727l-0.014 0.093c0.326-0.656 0.647-1.205 1.001-1.73l-0.034 0.053c0.018 0.035 0.037 0.072 0.053 0.107 0.051 0.103 0.086 0.169 0.123 0.235l-0.016-0.032c0.053 0.101 0.107 0.202 0.16 0.303 0.037 0.068 0.074 0.137 0.112 0.205 0.057 0.101 0.114 0.203 0.171 0.304 0.039 0.067 0.077 0.135 0.116 0.202 0.059 0.101 0.119 0.202 0.179 0.303 0.039 0.066 0.079 0.132 0.118 0.198 0.063 0.107 0.127 0.207 0.19 0.31 0.036 0.058 0.072 0.118 0.107 0.175 0.079 0.127 0.158 0.249 0.236 0.374 0.021 0.032 0.042 0.066 0.062 0.097 0.216 0.342 0.312 0.487 0.408 0.631l-0.118-0.188c0.036 0.053 0.071 0.107 0.107 0.16 0.059 0.088 0.117 0.176 0.174 0.26l0.127 0.185c0.093 0.14 0.138 0.205 0.183 0.27l-0.046-0.070 0.128 0.184c0.040 0.057 0.079 0.113 0.117 0.167s0.081 0.115 0.12 0.17c0.039 0.055 0.066 0.093 0.098 0.138l0.107 0.147 0.087 0.121 0.085 0.117 0.069 0.094 0.065 0.089 0.039 0.053c0.048 0.065 0.084 0.113 0.094 0.126 0.098 0.13 0.253 0.214 0.427 0.214s0.329-0.083 0.426-0.213l0.001-0.001c0.448-0.594 4.38-5.865 4.38-8.333 0-0.156-0.010-0.311-0.025-0.465-0.005-0.047-0.012-0.095-0.018-0.142-0.014-0.107-0.030-0.214-0.053-0.32-0.010-0.053-0.021-0.103-0.033-0.155-0.025-0.107-0.053-0.214-0.086-0.32-0.013-0.043-0.024-0.086-0.039-0.128-0.059-0.176-0.114-0.316-0.175-0.452l0.012 0.030c-0.012-0.026-0.026-0.053-0.038-0.077-0.053-0.111-0.107-0.221-0.168-0.329-0.027-0.048-0.056-0.094-0.085-0.142-0.066-0.108-0.119-0.189-0.173-0.269l0.013 0.020c-0.045-0.065-0.079-0.111-0.113-0.157l0.011 0.015c-0.018-0.024-0.034-0.049-0.053-0.071 1.003-0.351 2.169-0.603 3.377-0.707l0.055-0.004c-0.832 1.571-1.104 3.025-0.794 4.325 0.247 0.91 0.691 1.695 1.285 2.34l-0.004-0.004c0.502 0.622 0.864 1.071 0.841 1.803-0.046 1.548-1.795 2.837-2.456 3.325-0.819 0.596-1.773 1.070-2.802 1.369l-0.065 0.016c-0.97 0.317-1.807 0.59-2.127 1.545-0.316 1.261 0.203 2.584 1.293 3.292 0.371 0.204 0.812 0.324 1.282 0.324 0.303 0 0.593-0.050 0.865-0.142l-0.019 0.006c0.447-0.108 0.959-0.171 1.487-0.171 0.307 0 0.608 0.021 0.904 0.062l-0.034-0.004c1.015 0.144 1.889 0.267 2.304 0.848 0.246 0.347 0.233 0.706 0.185 1.364-0.028 0.227-0.044 0.489-0.044 0.755 0 0.72 0.117 1.412 0.334 2.058l-0.013-0.046c0.244 0.731 0.611 1.834 1.495 1.961 0.057 0.009 0.115 0.014 0.173 0.014 0.625 0 1.008-0.552 1.411-1.133 0.178-0.257 0.374-0.534 0.609-0.812 1.099 1.776 2.215 3.257 2.267 3.328 0.098 0.13 0.253 0.214 0.427 0.214s0.329-0.083 0.426-0.212l0.001-0.001c1.058-1.401 2.104-2.991 3.046-4.647l0.115-0.219c0.705 0.208 1.321 0.496 1.881 0.862l-0.027-0.016c-2.672 4.605-7.594 7.439-12.918 7.437zM25.948 16.469c0.767 0.686 1.247 1.678 1.247 2.783 0 0 0 0.001 0 0.001v-0c0 0.384-0.156 1.145-0.896 2.591-0.947 1.744-1.888 3.22-2.919 4.625l0.078-0.111c-0.502-0.7-1.367-1.943-2.14-3.249-0.379-0.614-0.764-1.343-1.103-2.098l-0.050-0.125c-0.239-0.476-0.398-1.031-0.443-1.619l-0.001-0.015c0.002-2.063 1.674-3.735 3.738-3.738 0.116 0 0.23 0.005 0.344 0.016 0.833 0.078 1.574 0.42 2.15 0.941l-0.003-0.003zM30.913 16.777c-0.1 2.145-0.644 4.141-1.542 5.929l0.039-0.085c-0.539-0.347-1.16-0.643-1.818-0.857l-0.057-0.016c0.394-0.722 0.655-1.571 0.726-2.472l0.001-0.022c-0.004-1.832-1.046-3.504-2.69-4.315l-0.034-0.015c-0.087-0.044-0.207-0.098-0.329-0.148l-0.035-0.012c-0.085-0.033-0.173-0.059-0.26-0.087-0.053-0.016-0.101-0.036-0.153-0.053-0.105-0.032-0.246-0.066-0.389-0.093l-0.029-0.005h-0.007c-0.085-0.016-0.172-0.024-0.258-0.036-0.197-0.029-0.424-0.045-0.654-0.045-2.635 0-4.772 2.136-4.772 4.772 0 0.013 0 0.026 0 0.038v-0.002c0.045 0.754 0.235 1.453 0.543 2.085l-0.014-0.033c0.351 0.798 0.689 1.45 1.062 2.081l-0.050-0.092c-0.32 0.349-0.621 0.73-0.892 1.131l-0.022 0.035c-0.153 0.259-0.335 0.48-0.547 0.67l-0.003 0.002c-0.107-0.016-0.305-0.244-0.641-1.243-0.168-0.503-0.266-1.083-0.266-1.685 0-0.235 0.015-0.467 0.044-0.695l-0.003 0.027c0.034-0.165 0.053-0.354 0.053-0.547 0-0.561-0.162-1.084-0.441-1.525l0.007 0.012c-0.682-0.953-1.872-1.121-3.030-1.286-0.306-0.044-0.659-0.069-1.018-0.069-0.597 0-1.177 0.069-1.733 0.201l0.051-0.010c-0.683 0.131-1 0.179-1.363-0.047-0.534-0.37-0.879-0.979-0.879-1.669 0-0.134 0.013-0.264 0.038-0.39l-0.002 0.013c0.143-0.427 0.57-0.581 1.442-0.868 1.21-0.353 2.266-0.88 3.201-1.562l-0.029 0.020c0.778-0.571 2.83-2.085 2.892-4.152 0.034-1.13-0.531-1.828-1.078-2.502-0.49-0.523-0.86-1.165-1.064-1.876l-0.008-0.033c-0.284-1.19 0.068-2.585 1.021-4.148h0.061c3.079 0.005 5.939 0.937 8.317 2.532l-0.054-0.034c-0.279 0.31-0.613 0.563-0.989 0.745l-0.019 0.008c-0.28 0.124-0.606 0.197-0.949 0.197-0.082 0-0.164-0.004-0.244-0.012l0.010 0.001c-0.082-0.011-0.178-0.017-0.274-0.017-0.493 0-0.949 0.159-1.319 0.429l0.006-0.004c-1.211 0.911-1.753 3.236-0.665 4.981 0.775 1.237 2.098 1.525 3.543 1.84 0.347 0.077 0.746 0.121 1.155 0.121 0.426 0 0.841-0.048 1.24-0.138l-0.037 0.007c0.281-0.070 0.603-0.11 0.935-0.11 0.341 0 0.672 0.042 0.988 0.122l-0.028-0.006c0.741 0.218 1.387 0.55 1.953 0.981l-0.015-0.011c0.593 0.494 1.049 1.133 1.316 1.863l0.010 0.030c0.044 0.472 0.071 0.945 0.071 1.425 0 0.239-0.005 0.481-0.021 0.728z"></path>
<path d="M7.438 6.437c1.179 0 2.136-0.956 2.136-2.136s-0.956-2.136-2.136-2.136-2.136 0.956-2.136 2.136c0 1.18 0.956 2.136 2.136 2.136zM7.438 3.234c0.59 0 1.068 0.478 1.068 1.068s-0.478 1.068-1.068 1.068-1.068-0.478-1.068-1.068c0-0.59 0.478-1.068 1.068-1.068zM21.321 18.719c0 1.18 0.956 2.136 2.136 2.136s2.136-0.956 2.136-2.136c0-1.179-0.956-2.136-2.136-2.136s-2.136 0.956-2.136 2.136zM24.525 18.719c0 0.59-0.478 1.068-1.068 1.068s-1.068-0.478-1.068-1.068c0-0.59 0.478-1.068 1.068-1.068s1.068 0.478 1.068 1.068z"></path>
</symbol>
<symbol id="timer" viewBox="0 0 32 32">
<title>timer</title>
<path d="M17.268 18.991c0.028-0.107 0.066-0.21 0.066-0.325 0-0.487-0.276-0.896-0.667-1.128v-7.538c0-0.368-0.298-0.667-0.667-0.667s-0.667 0.298-0.667 0.667v7.538c-0.391 0.233-0.667 0.641-0.667 1.128 0 0.735 0.598 1.333 1.333 1.333 0.115 0 0.218-0.038 0.325-0.066l3.871 3.87c0.12 0.121 0.287 0.195 0.471 0.195 0 0 0.001 0 0.001 0h-0c0.171 0 0.341-0.065 0.471-0.195 0.26-0.26 0.26-0.682 0-0.943l-3.871-3.87z"></path>
<path d="M29.138 9.138c0.26-0.26 0.26-0.682 0-0.943l-2.667-2.667c-0.26-0.26-0.682-0.26-0.943 0l-2.083 2.083c-1.423-0.961-3.040-1.655-4.779-2.009v-1.602h0.667c0 0 0 0 0 0 0.368 0 0.666-0.298 0.666-0.666 0-0 0-0 0-0v0-2.667c0-0 0-0 0-0 0-0.368-0.298-0.666-0.666-0.666-0 0-0 0-0 0h-6.667c-0 0-0 0-0 0-0.368 0-0.666 0.298-0.666 0.666 0 0 0 0 0 0v-0 2.667c0 0 0 0 0 0 0 0.368 0.298 0.666 0.666 0.666 0 0 0 0 0 0h0.667v1.602c-1.739 0.354-3.357 1.048-4.779 2.009l-2.083-2.083c-0.26-0.26-0.682-0.26-0.943 0l-2.667 2.667c-0.26 0.26-0.26 0.682 0 0.943l2.083 2.083c-1.438 2.128-2.278 4.691-2.278 7.446 0 7.352 5.981 13.333 13.333 13.333s13.333-5.981 13.333-13.333c0-2.756-0.84-5.318-2.278-7.446l2.083-2.083zM26 6.943l1.724 1.724-1.479 1.479c-0.528-0.631-1.093-1.196-1.703-1.707l-0.021-0.017 1.479-1.479zM13.333 1.333h5.333v1.333h-0.667c-0 0-0 0-0 0-0.368 0-0.666 0.298-0.666 0.666 0 0 0 0 0 0v-0 2.068c-0.439-0.044-0.883-0.068-1.333-0.068s-0.895 0.024-1.333 0.068v-2.068c0-0 0-0 0-0 0-0.368-0.298-0.666-0.666-0.666-0 0-0 0-0 0h-0.667v-1.333zM4.276 8.667l1.724-1.724 1.479 1.479c-0.631 0.528-1.196 1.093-1.707 1.703l-0.017 0.021-1.479-1.479zM28 18.667c0 6.617-5.383 12-12 12s-12-5.383-12-12 5.383-12 12-12 12 5.383 12 12z"></path>
</symbol>
<symbol id="heart" viewBox="0 0 32 32">
<title>heart</title>
<path d="M29.415 4.545c-1.676-1.676-3.894-2.591-6.262-2.591s-4.593 0.923-6.268 2.598l-0.875 0.875-0.889-0.889c-1.676-1.676-3.908-2.605-6.275-2.605-2.361 0-4.586 0.923-6.255 2.591-1.676 1.676-2.598 3.901-2.591 6.268 0 2.368 0.929 4.586 2.605 6.262l12.74 12.74c0.176 0.176 0.414 0.271 0.644 0.271s0.468-0.088 0.644-0.265l12.767-12.72c1.676-1.676 2.598-3.901 2.598-6.268 0.007-2.368-0.909-4.593-2.585-6.268zM28.113 15.786l-12.123 12.075-12.096-12.096c-1.33-1.33-2.062-3.094-2.062-4.973s0.726-3.643 2.056-4.966c1.323-1.323 3.087-2.056 4.959-2.056 1.879 0 3.65 0.733 4.979 2.062l1.533 1.533c0.36 0.36 0.936 0.36 1.296 0l1.52-1.52c1.33-1.33 3.1-2.062 4.973-2.062s3.636 0.733 4.966 2.056c1.33 1.33 2.056 3.094 2.056 4.973 0.007 1.879-0.726 3.643-2.056 4.973z"></path>
</symbol>
<symbol id="share" viewBox="0 0 32 32">
<title>share</title>
<path d="M25.143 18.286c-2.268 0-4.267 1.12-5.516 2.822l-6.241-3.121c0.193-0.633 0.328-1.291 0.328-1.986s-0.135-1.354-0.328-1.986l6.241-3.121c1.249 1.702 3.248 2.822 5.516 2.822 3.781 0 6.857-3.076 6.857-6.857s-3.076-6.857-6.857-6.857-6.857 3.076-6.857 6.857c0 0.695 0.135 1.353 0.328 1.986l-6.241 3.121c-1.249-1.702-3.248-2.822-5.516-2.822-3.781 0-6.857 3.076-6.857 6.857s3.076 6.857 6.857 6.857c2.268 0 4.267-1.12 5.516-2.822l6.24 3.121c-0.193 0.633-0.328 1.291-0.328 1.986 0 3.781 3.076 6.857 6.857 6.857s6.857-3.076 6.857-6.857-3.076-6.857-6.857-6.857zM25.143 2.286c2.521 0 4.571 2.051 4.571 4.571s-2.050 4.571-4.571 4.571c-2.521 0-4.571-2.051-4.571-4.571s2.050-4.571 4.571-4.571zM6.857 20.571c-2.521 0-4.571-2.051-4.571-4.571s2.050-4.571 4.571-4.571c2.521 0 4.571 2.051 4.571 4.571s-2.050 4.571-4.571 4.571zM25.143 29.714c-2.521 0-4.571-2.051-4.571-4.571s2.050-4.571 4.571-4.571c2.521 0 4.571 2.051 4.571 4.571s-2.050 4.571-4.571 4.571z"></path>
</symbol>
<symbol id="compass" viewBox="0 0 32 32">
<title>compass</title>
<path d="M16 0c-8.836 0-16 7.164-16 16s7.164 16 16 16 16-7.164 16-16c-0.010-8.832-7.168-15.99-16-16zM16 30.933c-8.247 0-14.933-6.686-14.933-14.933s6.686-14.933 14.933-14.933 14.933 6.686 14.933 14.933c-0.009 8.243-6.69 14.924-14.933 14.933z"></path>
<path d="M16 2.667c-7.364 0-13.333 5.97-13.333 13.333s5.97 13.333 13.333 13.333 13.333-5.97 13.333-13.333c-0.008-7.36-5.973-13.325-13.333-13.333zM16 28.267c-6.775 0-12.267-5.492-12.267-12.267s5.492-12.267 12.267-12.267 12.267 5.492 12.267 12.267c-0.008 6.772-5.495 12.259-12.267 12.267z"></path>
<path d="M23.855 8.145c-0.096-0.096-0.23-0.156-0.377-0.156-0.097 0-0.188 0.026-0.266 0.071l0.003-0.001-9.522 5.434c-0.006 0.004-0.008 0.010-0.014 0.014-0.061 0.052-0.118 0.109-0.171 0.171-0.003 0.006-0.010 0.009-0.013 0.014l-5.436 9.522c-0.044 0.076-0.070 0.167-0.070 0.264 0 0.147 0.060 0.281 0.156 0.377v0c0.097 0.096 0.23 0.156 0.377 0.156 0.097 0 0.188-0.026 0.267-0.071l-0.003 0.001 9.52-5.434c0.006-0.004 0.008-0.010 0.014-0.014 0.061-0.052 0.118-0.109 0.171-0.171 0.003-0.006 0.010-0.009 0.013-0.014l5.436-9.52c0.045-0.076 0.071-0.168 0.071-0.266 0-0.148-0.060-0.281-0.157-0.378v0zM9.954 22.046l4.12-7.217 3.099 3.096zM17.925 17.173l-3.093-3.094 7.216-4.121zM7.467 15.467h-2.133c-0.295 0-0.533 0.239-0.533 0.533s0.239 0.533 0.533 0.533v0h2.133c0.295 0 0.533-0.239 0.533-0.533s-0.239-0.533-0.533-0.533v0zM26.667 15.467h-2.133c-0.295 0-0.533 0.239-0.533 0.533s0.239 0.533 0.533 0.533v0h2.133c0.295 0 0.533-0.239 0.533-0.533s-0.239-0.533-0.533-0.533v0zM16 8c0.295 0 0.533-0.239 0.533-0.533v0-2.133c0-0.295-0.239-0.533-0.533-0.533s-0.533 0.239-0.533 0.533v0 2.133c0 0.295 0.239 0.533 0.533 0.533v0zM16 24c-0.295 0-0.533 0.239-0.533 0.533v0 2.133c0 0.295 0.239 0.533 0.533 0.533s0.533-0.239 0.533-0.533v0-2.133c0-0.295-0.239-0.533-0.533-0.533v0z"></path>
</symbol>
<symbol id="cart" viewBox="0 0 32 32">
<title>cart</title>
<path d="M28.52 5.333h-3.47c-0.874-3.073-3.7-5.333-7.049-5.333s-6.176 2.26-7.049 5.333h-4.34l-0.218-0.746c-0.329-1.131-1.382-1.921-2.56-1.921h-1.833c-0 0-0 0-0 0-0.368 0-0.666 0.298-0.666 0.666 0 0 0 0 0 0v-0c0 0 0 0 0 0 0 0.368 0.298 0.666 0.666 0.666 0 0 0 0 0 0h1.833c0.589 0 1.115 0.395 1.28 0.96l4.15 14.227-2.126 2.658c-0.292 0.364-0.469 0.832-0.47 1.341v0c0 1.184 0.963 2.147 2.147 2.147h18.52c0.369 0 0.667-0.298 0.667-0.667s-0.298-0.667-0.667-0.667h-18.52c-0.449 0-0.814-0.365-0.814-0.814 0-0.184 0.063-0.365 0.178-0.508l2.142-2.678h13.076c1.028 0 1.975-0.601 2.413-1.531l4.652-9.886c0.128-0.268 0.203-0.582 0.204-0.913v-0.189c0-1.184-0.963-2.147-2.147-2.147zM18 1.333c3.309 0 6 2.691 6 6s-2.691 6-6 6-6-2.691-6-6 2.691-6 6-6zM29.333 7.669c0 0.119-0.027 0.239-0.078 0.346l-4.652 9.885c-0.219 0.465-0.693 0.766-1.207 0.766h-12.897l-3.5-12h3.701c-0.020 0.22-0.034 0.442-0.034 0.667 0 4.044 3.29 7.333 7.333 7.333s7.333-3.29 7.333-7.333c0-0.225-0.014-0.447-0.034-0.667h3.22c0.449 0 0.814 0.365 0.814 0.814v0.189zM9.333 26.667c-1.471 0-2.667 1.196-2.667 2.667s1.196 2.667 2.667 2.667 2.667-1.196 2.667-2.667-1.196-2.667-2.667-2.667zM9.333 30.667c-0.735 0-1.333-0.598-1.333-1.333s0.598-1.333 1.333-1.333c0.735 0 1.333 0.598 1.333 1.333s-0.598 1.333-1.333 1.333zM25.333 26.667c-1.471 0-2.667 1.196-2.667 2.667s1.196 2.667 2.667 2.667 2.667-1.196 2.667-2.667-1.196-2.667-2.667-2.667zM25.333 30.667c-0.735 0-1.333-0.598-1.333-1.333s0.598-1.333 1.333-1.333c0.735 0 1.333 0.598 1.333 1.333s-0.598 1.333-1.333 1.333z"></path>
<path d="M17.529 11.805c0.13 0.13 0.301 0.195 0.471 0.195s0.341-0.065 0.471-0.195l2.667-2.667c0.26-0.26 0.26-0.682 0-0.943s-0.682-0.26-0.943 0l-1.529 1.529v-6.391c0-0.369-0.298-0.667-0.667-0.667s-0.667 0.298-0.667 0.667v6.391l-1.529-1.529c-0.26-0.26-0.682-0.26-0.943 0s-0.26 0.682 0 0.943l2.667 2.667z"></path>
</symbol>
<symbol id="backwards" viewBox="0 0 32 32">
<title>backwards</title>
<path d="M31.761 15.541l-15.158-10.667c-0.090-0.064-0.202-0.103-0.323-0.103-0.31 0-0.561 0.251-0.561 0.561 0 0 0 0 0 0v-0 9.98l-14.835-10.433c-0.090-0.064-0.202-0.102-0.322-0.102-0.31 0-0.562 0.251-0.562 0.561v21.319c0.001 0.31 0.252 0.561 0.561 0.561h0c0.113 0 0.226-0.035 0.323-0.102l14.835-10.432v9.98c0 0.31 0.251 0.561 0.561 0.561h0c0.121-0 0.233-0.039 0.325-0.104l-0.002 0.001 15.158-10.667c0.145-0.102 0.239-0.27 0.239-0.459s-0.094-0.356-0.238-0.457l-0.002-0.001zM1.123 25.579v-19.157l13.621 9.578-13.621 9.579zM16.842 25.585v-19.17l13.621 9.585-13.621 9.585z"></path>
</symbol>
</defs>
</svg>
