<svg aria-hidden="true" style="position:absolute;width:0;height:0" xmlns="http://www.w3.org/2000/svg" overflow="hidden"><defs><symbol id="phone-1" viewBox="0 0 32 32"><path d="M31.16 24.686l-6.477-4.319a1.89 1.89 0 00-2.531.411l-1.887 2.426a.805.805 0 01-1.038.215l.004.002-.359-.198c-1.19-.648-2.67-1.456-5.652-4.439s-3.791-4.465-4.44-5.652l-.197-.359a.808.808 0 01.211-1.036l.002-.001L11.22 9.85a1.89 1.89 0 00.412-2.531L7.313.842A1.88 1.88 0 004.778.271L2.07 1.898A3.839 3.839 0 00.335 4.132l-.007.027c-.975 3.554-.242 9.687 8.793 18.722C16.308 30.067 21.658 32 25.335 32h.04c.877 0 1.726-.12 2.532-.343l-.066.016a3.834 3.834 0 002.251-1.725l.01-.018 1.629-2.707a1.88 1.88 0 00-.57-2.536zm-.348 1.989l-1.625 2.708a2.774 2.774 0 01-1.607 1.256l-.019.005c-3.281.901-9.012.155-17.685-8.519S.457 7.721 1.357 4.44a2.778 2.778 0 011.249-1.622l.013-.007 2.708-1.625a.816.816 0 011.1.247l4.316 6.476a.822.822 0 01-.178 1.099L8.14 10.894a1.865 1.865 0 00-.494 2.395l.193.35c.682 1.25 1.529 2.805 4.622 5.898s4.648 3.94 5.897 4.622l.35.193c.81.454 1.831.244 2.395-.494l1.886-2.425a.822.822 0 011.099-.178l6.476 4.319a.814.814 0 01.247 1.1zM18.132 5.336c5.004.006 9.06 4.061 9.065 9.065a.533.533 0 101.066 0c-.006-5.593-4.539-10.126-10.132-10.132a.533.533 0 100 1.066z"/><path d="M18.132 8.536a5.873 5.873 0 015.866 5.866.533.533 0 001.066 0 6.94 6.94 0 00-6.932-6.932.533.533 0 100 1.066z"/><path d="M18.132 11.735a2.67 2.67 0 012.666 2.666.533.533 0 001.066 0 3.737 3.737 0 00-3.733-3.733.533.533 0 100 1.066z"/></symbol><symbol id="e-mail" viewBox="0 0 32 32"><path d="M30.4 3.733H1.6a1.6 1.6 0 00-1.6 1.6v21.333a1.6 1.6 0 001.6 1.6h28.8a1.6 1.6 0 001.6-1.6V5.333a1.6 1.6 0 00-1.6-1.6zm.533 22.934a.533.533 0 01-.533.533H1.6a.533.533 0 01-.533-.533V5.334c0-.295.239-.533.533-.533h28.8c.295 0 .533.239.533.533v21.333z"/><path d="M29.38 5.869a.529.529 0 00-.39.124L16.687 16.328a1.068 1.068 0 01-1.374-.001l.002.001L3.011 5.992a.533.533 0 00-.686.816l.001.001L14.63 17.144a2.13 2.13 0 002.745 0L29.679 6.809a.531.531 0 00.064-.753l.001.001a.534.534 0 00-.36-.188h-.002zM10.258 17.071a.528.528 0 00-.514.165l-7.467 8a.532.532 0 10.779.727l7.467-8a.532.532 0 00-.262-.893l-.004-.001zm11.999.165a.533.533 0 10-.779.727l7.467 8a.532.532 0 00.779-.728l-7.466-7.999z"/></symbol><symbol id="wrench-1" viewBox="0 0 32 32"><path d="M9.73 12.437l10.207 10.207 2.707-2.707L12.437 9.73zm10.207 8.793l-8.793-8.793 1.293-1.293 8.793 8.793z"/><path d="M30.937 13.576l-2.956-.983c-.3-1.069-.696-2-1.194-2.866l.032.061 1.391-2.787-3.335-3.337-2.789 1.391a12.094 12.094 0 00-2.72-1.14l-.088-.021-.982-2.956h-4.721l-.89 2.673A6.525 6.525 0 007.436.938H7.42c-.595 0-1.171.081-1.717.233l.045-.011-.831.228 2.805 2.805-.745 2.788-2.788.745-2.804-2.805-.227.831a6.234 6.234 0 00-.223 1.674v.014-.001a6.516 6.516 0 002.655 5.237l.018.013-2.673.889v4.721l2.956.983c.3 1.069.697 2 1.194 2.867l-.032-.061-1.391 2.789 3.335 3.335 2.789-1.391c.806.465 1.738.862 2.72 1.14l.088.021.982 2.956h4.721l.89-2.673a6.529 6.529 0 005.249 2.672h.015c.595 0 1.171-.081 1.718-.233l-.045.011.831-.227-2.804-2.805.745-2.788 2.788-.745 2.804 2.804.227-.831a6.276 6.276 0 00.223-1.675v-.013.001a6.53 6.53 0 00-2.673-5.25l2.673-.89zm-8.191 3.961l-8.409-8.409a6.98 6.98 0 018.409 8.409zm-5.17 12.4h-3.279l-.928-2.788-.266-.067a11.427 11.427 0 01-3.098-1.289l.051.029-.235-.139-2.626 1.31-2.316-2.316 1.31-2.626-.139-.234a11.203 11.203 0 01-1.242-2.967l-.018-.08-.067-.266-2.788-.928v-3.279l2.792-.929.005-.021c.784.373 1.703.59 2.673.59.28 0 .557-.018.828-.053l-.032.003a8.004 8.004 0 009.784 9.784 6.32 6.32 0 00.556 3.507l-.016-.039-.021.005zm-8.45-15.6l8.411 8.409a6.98 6.98 0 01-8.409-8.409zm20.811 10.1c0 .177-.009.354-.025.528l-1.931-1.932-3.9 1.045-1.045 3.902 1.932 1.931a5.528 5.528 0 01-5.279-2.699 5.402 5.402 0 01-.752-2.767v-.035c0-.426.051-.84.148-1.236l-.007.036.066-.273L8.937 12.73l-.273.067a5.1 5.1 0 01-1.202.141h-.026.001-.015a5.438 5.438 0 01-2.787-.764l.025.014a5.523 5.523 0 01-2.698-5.279l1.931 1.932 3.902-1.045L8.84 3.894 6.908 1.963a5.525 5.525 0 015.279 2.699c.471.791.75 1.744.75 2.762v.014-.001.025c0 .426-.051.841-.148 1.238l.007-.036-.067.273 10.207 10.207.273-.066a5.091 5.091 0 011.201-.141h.027-.001.015c1.018 0 1.971.279 2.787.764l-.025-.014a5.523 5.523 0 012.723 4.75zm0-6.861l-2.792.929-.005.021a6.249 6.249 0 00-2.673-.59c-.281 0-.557.018-.828.053l.032-.003a8.004 8.004 0 00-9.784-9.784 6.32 6.32 0 00-.556-3.507l.016.039.021-.005.929-2.792h3.279l.928 2.788.266.067c1.155.297 2.17.729 3.098 1.289l-.051-.029.234.139 2.626-1.31 2.316 2.316-1.31 2.626.139.235c.531.877.963 1.891 1.242 2.967l.018.08.067.266 2.788.928z"/></symbol><symbol id="savings-1" viewBox="0 0 32 32"><path d="M4.389 24H27.61c.919 0 1.666-.747 1.666-1.666V6.943c0-.919-.747-1.666-1.666-1.666H4.389c-.919 0-1.666.747-1.666 1.666v15.391c0 .919.747 1.666 1.666 1.666zM4.085 9.298h1.362v1.362H4.085V9.298zm0 9.319h1.362v1.362H4.085v-1.362zm0 2.723h2.043a.681.681 0 00.681-.681v-2.723a.681.681 0 00-.681-.681H4.085v-5.234h2.043a.681.681 0 00.681-.681V8.617a.681.681 0 00-.681-.681H4.085v-.994c0-.168.136-.304.304-.304H27.61c.168 0 .304.136.304.304v15.391a.304.304 0 01-.304.304H4.389a.304.304 0 01-.304-.304v-.994z"/><path d="M31.319 2.553H.681A.681.681 0 000 3.234v22.808c0 .376.305.681.681.681h1.717v.991c0 .955.777 1.732 1.732 1.732h1.983c.955 0 1.732-.777 1.732-1.732v-.991h16.311v.991c0 .955.777 1.732 1.732 1.732h1.983c.955 0 1.732-.777 1.732-1.732v-.991h1.717a.681.681 0 00.681-.681V3.234a.681.681 0 00-.681-.681zM6.113 28.085H4.13a.37.37 0 01-.37-.37v-.992h2.723v.991a.37.37 0 01-.37.37zm21.757 0h-1.983a.37.37 0 01-.37-.37v-.992h2.723v.991a.37.37 0 01-.37.37zm2.768-2.723H1.361V3.915h29.277v21.447z"/><path d="M17.021 21.277h8.851a.681.681 0 00.681-.681V8.681A.681.681 0 0025.872 8h-8.851a.681.681 0 00-.681.681v11.915c0 .376.305.681.681.681zm.681-11.915h1.589v3.496a.681.681 0 001.362 0V9.362h1.589v7.574h-4.539V9.361zm0 8.936h5.22a.681.681 0 00.681-.681V9.362h1.589v10.553h-7.489v-1.617zm-6.714.425c2.252 0 4.085-1.833 4.085-4.085s-1.833-4.085-4.085-4.085-4.085 1.833-4.085 4.085 1.833 4.085 4.085 4.085zm0-6.808c.496 0 .962.134 1.363.367l-1.379 1.379a.68.68 0 00.962.963l1.387-1.387c.245.399.389.882.389 1.399v.003c0 1.502-1.222 2.723-2.723 2.723s-2.723-1.222-2.723-2.723 1.222-2.723 2.723-2.723z"/><path d="M19.972 14.605a.681.681 0 00-.681.681v.068a.681.681 0 001.362 0v-.068a.681.681 0 00-.681-.681z"/></symbol><symbol id="world-1" viewBox="0 0 32 32"><path d="M31.947 14.816a.555.555 0 00.032-.156.525.525 0 00-.027-.166l-.041-.117a15.981 15.981 0 00-5.786-10.729l-.029-.023c-.235-.191-.481-.364-.726-.542-.012-.01-.019-.025-.032-.034s-.024-.009-.035-.016A15.927 15.927 0 0015.984.028h-.002c-.138 0-.276 0-.379.011a15.637 15.637 0 00-5.325 1.04l.107-.036a4.799 4.799 0 00-7.752 3.791 5.07 5.07 0 00.432 1.802l-.013-.032a15.802 15.802 0 00-1.392 2.27l-.042.092c-.008.013-.013.027-.02.04-3.786 7.828-.636 17.246 7.098 21.221s17.225 1.055 21.388-6.579c1.091-1.971 1.779-4.303 1.893-6.784l.001-.035c.017-.258.022-.52.022-.783 0-.414-.021-.824-.053-1.232zm-1.552-2.74c-.068-.06-.13-.13-.201-.185a6.992 6.992 0 00-2.282-1.152l-.05-.012a5.047 5.047 0 00-2.376-.018l.034-.007a4.636 4.636 0 01-2.026.004l.031.006c-1.276-.279-2.285-.499-2.82-1.353-.766-1.228-.407-2.955.402-3.562a1.206 1.206 0 01.921-.193l-.008-.001a3.404 3.404 0 001.677-.288l-.022.009a4.328 4.328 0 001.437-1.092l.005-.006c.101.078.208.148.306.229a14.964 14.964 0 014.945 7.517l.025.105zM7.438 1.098a3.744 3.744 0 013.738 3.738c0 1.597-2.399 5.254-3.738 7.108a33.035 33.035 0 01-3.206-5.275l-.087-.199a4.372 4.372 0 01-.443-1.619l-.001-.015a3.742 3.742 0 013.738-3.738zM1.03 16.049a15.12 15.12 0 01.317-3.061l-.017.098c.057.742.154 1.403.24 1.975.331 2.189.644 4.253 2.257 6.141.675.795 1.805 2.125 3.552 2.321s3.935-.808 4.567-1.121l.242-.122a2.322 2.322 0 011.109-.357h.006c.7.065 1.313.396 1.745.889l.003.003c.911 1.009 1.142 2.693.495 3.604a1.644 1.644 0 01-.809.567l-.012.003a2.513 2.513 0 00-1.333 1.057l-.006.011a3.307 3.307 0 00-.224 2.693l-.007-.023A14.975 14.975 0 011.029 16.049zM15.981 31c-.516 0-1.031-.027-1.545-.08a1.967 1.967 0 01-.117-.167l-.005-.008a2.246 2.246 0 01-.273-1.081c0-.388.097-.754.269-1.074l-.006.012a1.48 1.48 0 01.828-.628l.01-.003a2.669 2.669 0 001.268-.928l.005-.007c.929-1.306.666-3.569-.571-4.937a3.66 3.66 0 00-2.518-1.245l-.011-.001h-.024a3.212 3.212 0 00-1.604.482l.014-.008-.228.115c-1.167.575-2.827 1.144-3.976 1.014-1.326-.148-2.247-1.233-2.858-1.952-1.416-1.655-1.693-3.487-2.014-5.607a15.504 15.504 0 01-.027-5.585l-.014.093c.326-.656.647-1.205 1.001-1.73l-.034.053a4.873 4.873 0 00.176.342l-.016-.032.16.303.112.205.171.304.116.202.179.303.118.198c.063.107.127.207.19.31l.107.175.236.374.062.097c.216.342.312.487.408.631l-.118-.188.107.16.174.26.127.185c.093.14.138.205.183.27l-.046-.07.128.184.117.167a60.066 60.066 0 00.218.308l.107.147.087.121.085.117.069.094.065.089.039.053.094.126a.534.534 0 00.853.001l.001-.001c.448-.594 4.38-5.865 4.38-8.333 0-.156-.01-.311-.025-.465l-.018-.142a3.88 3.88 0 00-.053-.32 4.585 4.585 0 00-.119-.475c-.013-.043-.024-.086-.039-.128a4.79 4.79 0 00-.175-.452l.012.03-.038-.077a5.36 5.36 0 00-.168-.329c-.027-.048-.056-.094-.085-.142a6.716 6.716 0 00-.173-.269l.013.02c-.045-.065-.079-.111-.113-.157l.011.015c-.018-.024-.034-.049-.053-.071a14.022 14.022 0 013.377-.707l.055-.004c-.832 1.571-1.104 3.025-.794 4.325.247.91.691 1.695 1.285 2.34l-.004-.004c.502.622.864 1.071.841 1.803-.046 1.548-1.795 2.837-2.456 3.325a9.095 9.095 0 01-2.802 1.369l-.065.016c-.97.317-1.807.59-2.127 1.545a3.043 3.043 0 001.293 3.292c.371.204.812.324 1.282.324.303 0 .593-.05.865-.142l-.019.006a6.578 6.578 0 012.391-.109l-.034-.004c1.015.144 1.889.267 2.304.848.246.347.233.706.185 1.364a6.451 6.451 0 00.29 2.813l-.013-.046c.244.731.611 1.834 1.495 1.961.057.009.115.014.173.014.625 0 1.008-.552 1.411-1.133.178-.257.374-.534.609-.812 1.099 1.776 2.215 3.257 2.267 3.328a.534.534 0 00.853.002l.001-.001a43.483 43.483 0 003.046-4.647l.115-.219a7.028 7.028 0 011.881.862l-.027-.016a14.929 14.929 0 01-12.918 7.437zm9.967-14.531a3.72 3.72 0 011.247 2.783v.001c0 .384-.156 1.145-.896 2.591a39.574 39.574 0 01-2.919 4.625l.078-.111a46.41 46.41 0 01-2.14-3.249 18.537 18.537 0 01-1.103-2.098l-.05-.125a4.372 4.372 0 01-.443-1.619l-.001-.015a3.742 3.742 0 014.082-3.722c.833.078 1.574.42 2.15.941l-.003-.003zm4.965.308a14.667 14.667 0 01-1.542 5.929l.039-.085a7.902 7.902 0 00-1.818-.857l-.057-.016a6.204 6.204 0 00.726-2.472l.001-.022a4.823 4.823 0 00-2.69-4.315l-.034-.015a4.858 4.858 0 00-.329-.148l-.035-.012c-.085-.033-.173-.059-.26-.087-.053-.016-.101-.036-.153-.053a3.878 3.878 0 00-.389-.093l-.029-.005h-.007c-.085-.016-.172-.024-.258-.036a4.772 4.772 0 00-5.426 4.727v.038-.002c.045.754.235 1.453.543 2.085l-.014-.033c.351.798.689 1.45 1.062 2.081l-.05-.092c-.32.349-.621.73-.892 1.131l-.022.035c-.153.259-.335.48-.547.67l-.003.002c-.107-.016-.305-.244-.641-1.243a5.507 5.507 0 01-.222-2.38l-.003.027a2.843 2.843 0 00-.388-2.072l.007.012c-.682-.953-1.872-1.121-3.03-1.286a7.493 7.493 0 00-2.751.132l.051-.01c-.683.131-1 .179-1.363-.047a2.024 2.024 0 01-.841-2.059l-.002.013c.143-.427.57-.581 1.442-.868 1.21-.353 2.266-.88 3.201-1.562l-.029.02c.778-.571 2.83-2.085 2.892-4.152.034-1.13-.531-1.828-1.078-2.502a4.604 4.604 0 01-1.064-1.876l-.008-.033c-.284-1.19.068-2.585 1.021-4.148h.061c3.079.005 5.939.937 8.317 2.532l-.054-.034c-.279.31-.613.563-.989.745l-.019.008a2.356 2.356 0 01-1.193.185l.01.001a2.23 2.23 0 00-1.593.412l.006-.004c-1.211.911-1.753 3.236-.665 4.981.775 1.237 2.098 1.525 3.543 1.84a5.63 5.63 0 002.395-.017l-.037.007a4.021 4.021 0 011.923.012l-.028-.006a5.97 5.97 0 011.953.981l-.015-.011a4.385 4.385 0 011.316 1.863l.01.03c.044.472.071.945.071 1.425 0 .239-.005.481-.021.728z"/><path d="M7.438 6.437a2.136 2.136 0 100-4.272 2.136 2.136 0 000 4.272zm0-3.203a1.068 1.068 0 110 2.136 1.068 1.068 0 010-2.136zm13.883 15.485a2.136 2.136 0 104.271 0 2.136 2.136 0 00-4.271 0zm3.204 0a1.068 1.068 0 11-2.136 0 1.068 1.068 0 012.136 0z"/></symbol><symbol id="timer" viewBox="0 0 32 32"><path d="M17.268 18.991c.028-.107.066-.21.066-.325 0-.487-.276-.896-.667-1.128V10a.667.667 0 10-1.334 0v7.538c-.391.233-.667.641-.667 1.128 0 .735.598 1.333 1.333 1.333.115 0 .218-.038.325-.066l3.871 3.87c.12.121.287.195.471.195h.001a.668.668 0 00.471-1.138l-3.871-3.87z"/><path d="M29.138 9.138a.668.668 0 000-.943l-2.667-2.667a.668.668 0 00-.943 0l-2.083 2.083a13.262 13.262 0 00-4.779-2.009V4h.667a.666.666 0 00.666-.666V.667a.666.666 0 00-.666-.666h-6.667A.666.666 0 0012 .667v2.667c0 .368.298.666.666.666h.667v1.602a13.254 13.254 0 00-4.779 2.009L6.471 5.528a.668.668 0 00-.943 0L2.861 8.195a.668.668 0 000 .943l2.083 2.083a13.256 13.256 0 00-2.278 7.446C2.666 26.019 8.647 32 15.999 32s13.333-5.981 13.333-13.333c0-2.756-.84-5.318-2.278-7.446l2.083-2.083zM26 6.943l1.724 1.724-1.479 1.479a13.597 13.597 0 00-1.703-1.707l-.021-.017L26 6.943zm-12.667-5.61h5.333v1.333h-.667a.666.666 0 00-.666.666V5.4a13.336 13.336 0 00-2.666 0V3.332a.666.666 0 00-.666-.666h-.667V1.333zM4.276 8.667L6 6.943l1.479 1.479a13.597 13.597 0 00-1.707 1.703l-.017.021-1.479-1.479zm23.724 10c0 6.617-5.383 12-12 12s-12-5.383-12-12 5.383-12 12-12 12 5.383 12 12z"/></symbol><symbol id="heart" viewBox="0 0 32 32"><path d="M29.415 4.545c-1.676-1.676-3.894-2.591-6.262-2.591s-4.593.923-6.268 2.598l-.875.875-.889-.889a8.828 8.828 0 00-6.275-2.605 8.8 8.8 0 00-6.255 2.591A8.77 8.77 0 000 10.792c0 2.368.929 4.586 2.605 6.262l12.74 12.74c.176.176.414.271.644.271s.468-.088.644-.265L29.4 17.08a8.805 8.805 0 002.598-6.268 8.76 8.76 0 00-2.585-6.268zm-1.302 11.241L15.99 27.861 3.894 15.765c-1.33-1.33-2.062-3.094-2.062-4.973s.726-3.643 2.056-4.966A6.975 6.975 0 018.847 3.77a7 7 0 014.979 2.062l1.533 1.533c.36.36.936.36 1.296 0l1.52-1.52c1.33-1.33 3.1-2.062 4.973-2.062s3.636.733 4.966 2.056a6.978 6.978 0 012.056 4.973 6.95 6.95 0 01-2.056 4.973z"/></symbol><symbol id="share" viewBox="0 0 32 32"><path d="M25.143 18.286c-2.268 0-4.267 1.12-5.516 2.822l-6.241-3.121c.193-.633.328-1.291.328-1.986s-.135-1.354-.328-1.986l6.241-3.121c1.249 1.702 3.248 2.822 5.516 2.822 3.781 0 6.857-3.076 6.857-6.857S28.924.002 25.143.002s-6.857 3.076-6.857 6.857c0 .695.135 1.353.328 1.986l-6.241 3.121c-1.249-1.702-3.248-2.822-5.516-2.822C3.076 9.144 0 12.22 0 16.001s3.076 6.857 6.857 6.857c2.268 0 4.267-1.12 5.516-2.822l6.24 3.121c-.193.633-.328 1.291-.328 1.986 0 3.781 3.076 6.857 6.857 6.857s6.857-3.076 6.857-6.857-3.076-6.857-6.857-6.857zm0-16c2.521 0 4.571 2.051 4.571 4.571s-2.05 4.571-4.571 4.571-4.571-2.051-4.571-4.571 2.05-4.571 4.571-4.571zM6.857 20.571c-2.521 0-4.571-2.051-4.571-4.571s2.05-4.571 4.571-4.571S11.428 13.48 11.428 16s-2.05 4.571-4.571 4.571zm18.286 9.143c-2.521 0-4.571-2.051-4.571-4.571s2.05-4.571 4.571-4.571 4.571 2.051 4.571 4.571-2.05 4.571-4.571 4.571z"/></symbol><symbol id="compass" viewBox="0 0 32 32"><path d="M16 0C7.164 0 0 7.164 0 16s7.164 16 16 16 16-7.164 16-16C31.99 7.168 24.832.01 16 0zm0 30.933C7.753 30.933 1.067 24.247 1.067 16S7.753 1.067 16 1.067 30.933 7.753 30.933 16c-.009 8.243-6.69 14.924-14.933 14.933z"/><path d="M16 2.667C8.636 2.667 2.667 8.637 2.667 16S8.637 29.333 16 29.333 29.333 23.363 29.333 16C29.325 8.64 23.36 2.675 16 2.667zm0 25.6C9.225 28.267 3.733 22.775 3.733 16S9.225 3.733 16 3.733 28.267 9.225 28.267 16C28.259 22.772 22.772 28.259 16 28.267z"/><path d="M23.855 8.145a.533.533 0 00-.643-.085l.003-.001-9.522 5.434c-.006.004-.008.01-.014.014a1.534 1.534 0 00-.171.171c-.003.006-.01.009-.013.014l-5.436 9.522a.533.533 0 00.086.641.535.535 0 00.644.085l-.003.001 9.52-5.434c.006-.004.008-.01.014-.014.061-.052.118-.109.171-.171.003-.006.01-.009.013-.014l5.436-9.52a.532.532 0 00-.086-.644zM9.954 22.046l4.12-7.217 3.099 3.096zm7.971-4.873l-3.093-3.094 7.216-4.121zM7.467 15.467H5.334a.533.533 0 100 1.066h2.133a.533.533 0 100-1.066zm19.2 0h-2.133a.533.533 0 100 1.066h2.133a.533.533 0 100-1.066zM16 8a.533.533 0 00.533-.533V5.334a.533.533 0 10-1.066 0v2.133c0 .295.239.533.533.533zm0 16a.533.533 0 00-.533.533v2.133a.533.533 0 101.066 0v-2.133A.533.533 0 0016 24z"/></symbol><symbol id="cart" viewBox="0 0 32 32"><path d="M28.52 5.333h-3.47C24.176 2.26 21.35 0 18.001 0s-6.176 2.26-7.049 5.333h-4.34l-.218-.746a2.68 2.68 0 00-2.56-1.921H2.001a.666.666 0 100 1.332h1.833a1.34 1.34 0 011.28.96l4.15 14.227-2.126 2.658a2.15 2.15 0 001.677 3.488h18.52a.666.666 0 100-1.334H8.815a.815.815 0 01-.636-1.322l2.142-2.678h13.076a2.678 2.678 0 002.413-1.531l4.652-9.886c.128-.268.203-.582.204-.913v-.189a2.15 2.15 0 00-2.147-2.147zm-10.52-4c3.309 0 6 2.691 6 6s-2.691 6-6 6-6-2.691-6-6 2.691-6 6-6zm11.333 6.336a.81.81 0 01-.078.346L24.603 17.9a1.34 1.34 0 01-1.207.766H10.499l-3.5-12H10.7c-.02.22-.034.442-.034.667 0 4.044 3.29 7.333 7.333 7.333s7.333-3.29 7.333-7.333c0-.225-.014-.447-.034-.667h3.22c.449 0 .814.365.814.814v.189zm-20 18.998c-1.471 0-2.667 1.196-2.667 2.667s1.196 2.667 2.667 2.667S12 30.805 12 29.334s-1.196-2.667-2.667-2.667zm0 4c-.735 0-1.333-.598-1.333-1.333s.598-1.333 1.333-1.333 1.333.598 1.333 1.333-.598 1.333-1.333 1.333zm16-4c-1.471 0-2.667 1.196-2.667 2.667s1.196 2.667 2.667 2.667S28 30.805 28 29.334s-1.196-2.667-2.667-2.667zm0 4c-.735 0-1.333-.598-1.333-1.333s.598-1.333 1.333-1.333 1.333.598 1.333 1.333-.598 1.333-1.333 1.333z"/><path d="M17.529 11.805a.665.665 0 00.942 0l2.667-2.667a.668.668 0 00-.943-.943l-1.529 1.529V3.333a.666.666 0 10-1.334 0v6.391l-1.529-1.529a.668.668 0 00-.943.943l2.667 2.667z"/></symbol><symbol id="backwards" viewBox="0 0 32 32"><path d="M31.761 15.541L16.603 4.874a.56.56 0 00-.884.458v9.98L.884 4.879A.562.562 0 000 5.338v21.319c.001.31.252.561.561.561a.57.57 0 00.323-.102l14.835-10.432v9.98a.562.562 0 00.886.457l-.002.001 15.158-10.667a.56.56 0 00.001-.916l-.002-.001zM1.123 25.579V6.422L14.744 16 1.123 25.579zm15.719.006V6.415L30.463 16l-13.621 9.585z"/></symbol></defs></svg>